<?xml version="1.0" encoding="UTF-8"?>
<svg xmlns="http://www.w3.org/2000/svg" xmlns:xlink="http://www.w3.org/1999/xlink" width="39pt" height="39pt" viewBox="0 0 39 39" version="1.1">
<g id="surface1">
<path style=" stroke:none;fill-rule:nonzero;fill:rgb(0%,0%,0%);fill-opacity:1;" d="M 38.722656 6.699219 C 38.546875 6.546875 38.3125 6.476562 38.078125 6.507812 L 20.203125 8.945312 C 19.800781 9 19.5 9.34375 19.5 9.75 L 19.5 24.375 C 19.5 24.78125 19.800781 25.125 20.203125 25.179688 L 38.078125 27.617188 C 38.113281 27.625 38.152344 27.625 38.1875 27.625 C 38.382812 27.625 38.574219 27.554688 38.722656 27.421875 C 38.898438 27.269531 39 27.046875 39 26.8125 L 39 7.3125 C 39 7.078125 38.898438 6.855469 38.722656 6.699219 Z M 27.625 24.550781 L 21.125 23.664062 L 21.125 17.875 L 27.625 17.875 Z M 27.625 16.25 L 21.125 16.25 L 21.125 10.460938 L 27.625 9.574219 Z M 37.375 25.882812 L 29.25 24.773438 L 29.25 17.875 L 37.375 17.875 Z M 37.375 16.25 L 29.25 16.25 L 29.25 9.351562 L 37.375 8.242188 Z M 37.375 16.25 "/>
<path style=" stroke:none;fill-rule:nonzero;fill:rgb(0%,0%,0%);fill-opacity:1;" d="M 28.4375 29.25 C 28.886719 29.25 29.25 28.886719 29.25 28.4375 C 29.25 27.988281 28.886719 27.625 28.4375 27.625 L 2.4375 27.625 C 1.988281 27.625 1.625 27.261719 1.625 26.8125 L 1.625 7.3125 C 1.625 6.863281 1.988281 6.5 2.4375 6.5 L 28.4375 6.5 C 28.886719 6.5 29.25 6.136719 29.25 5.6875 C 29.25 5.238281 28.886719 4.875 28.4375 4.875 L 2.4375 4.875 C 1.09375 4.875 0 5.96875 0 7.3125 L 0 26.8125 C 0 28.15625 1.09375 29.25 2.4375 29.25 L 14.625 29.25 L 14.625 31 L 5.554688 32.511719 C 5.113281 32.585938 4.8125 33.003906 4.886719 33.445312 C 4.953125 33.84375 5.296875 34.125 5.6875 34.125 C 5.730469 34.125 5.773438 34.121094 5.820312 34.113281 L 15.503906 32.5 L 18.621094 32.5 L 28.300781 34.113281 C 28.347656 34.121094 28.394531 34.125 28.4375 34.125 C 28.828125 34.125 29.171875 33.84375 29.238281 33.445312 C 29.3125 33.003906 29.011719 32.585938 28.570312 32.511719 L 19.5 31 L 19.5 29.25 Z M 17.875 30.875 L 16.25 30.875 L 16.25 29.25 L 17.875 29.25 Z M 17.875 30.875 "/>
</g>
</svg>
